<svg xmlns="http://www.w3.org/2000/svg" xmlns:xlink="http://www.w3.org/1999/xlink" version="1.1" width="595.276pt" height="841.89pt" viewBox="0 0 595.276 841.89">
<defs>
<clipPath id="clip_0">
<path transform="matrix(1,0,0,-1,0,841.89)" d="M0 841.89H595.276V0H0Z"/>
</clipPath>
</defs>
<g id="layer_1" data-name="Layer 1">
<g clip-path="url(#clip_0)">
<path transform="matrix(1,0,0,-1,381.7031,426.92314)" d="M0 0C-.554 8.614-7.985 102.079-8.429 105.399-8.521 106.086-8.241 107.321-9.541 107.322-11.542 107.322-13.55 107.28-15.543 107.116-24.661 106.37-33.511 105.221-42.834 104.2-54.922 102.94-66.946 101.368-79.049 100.271-87.384 99.516-95.699 98.388-104.046 97.689-110.974 97.11-117.896 96.465-124.848 96.13-139.513 95.425-154 92.786-168.652 91.868-170.235 91.769-171.797 91.322-173.38 91.226-174.189 91.177-174.297 90.857-174.313 90.229-174.386 87.359-173.901 72.517-173.888 67.964-173.872 62.607-173.438 57.273-173.481 51.901-173.561 41.989-172.07 15.921-172.054 12.839-172.026 7.698-171.365-18.295-171.04-25.819-170.675-34.252-169.287-73.176-168.999-77.067-168.932-77.97-168.968-78.838-167.689-78.945-164.266-79.233-160.851-79.612-157.427-79.903-153.077-80.273-55.817-89.922-48.904-90.65-42.164-91.36-35.437-92.19-28.694-92.879-20.738-93.69-12.771-94.402-4.809-95.168-1.074-95.526 2.659-95.901 6.391-96.284 7.553-96.404 7.889-96.001 7.779-94.786 7.343-89.933 .589-9.168 0 0M7.288-100.366C2.432-100.164-2.403-99.448-7.246-98.926-13.986-98.2-20.725-97.457-27.466-96.744-35.889-95.854-159.27-83.575-168.788-82.409-171.152-82.119-172.404-81.32-172.477-78.76-172.671-71.877-173.062-65-173.298-58.118-173.993-37.855-174.63-17.591-175.329 2.672-175.764 15.308-176.24 27.942-176.75 40.575-177.423 57.228-178.139 73.879-178.869 90.529-178.926 91.844-178.66 93.083-178.335 94.312-177.898 95.966-176.215 95.656-175.211 95.697-163.781 96.155-152.421 97.299-141.05 98.515-135.347 99.125-129.599 99.544-123.871 100.058-112.655 101.064-101.424 101.911-90.22 103.036-77.583 104.306-12.028 111.221-7.324 112.119-5.605 112.446-4.94 111.855-4.877 109.976-4.463 97.743-3.497 85.543-2.654 73.334-2.248 67.451 3.456-3.696 4.249-14.873 4.802-22.67 5.542-30.461 6.293-38.232 7.302-48.669 7.86-59.138 8.92-69.567 9.598-76.247 9.852-82.971 10.549-89.648 10.845-92.484 10.669-95.35 11.278-98.178 11.521-99.3 10.529-100.601 7.288-100.366" fill="#231f20"/>
<path transform="matrix(1,0,0,-1,311.1113,462.84593)" d="M0 0C4.743 4.071 9.432 7.65 13.739 11.528 16.599 13.682 15.357 21.005 12.511 22.233 12.199 22.436 11.773 22.551 11.399 22.554 8.916 22.571 6.139 21.768 3.732 21.139 .421 20.273-.749 18.77-.666 15.335-.546 10.392-.246 5.453 0 0M2.45-2.868C3.966-3.661 22.079-19.377 27.597-24.918 29.12-26.448 30.543-28.064 32.332-29.332 34.098-31.06 34.151-31.903 33.278-33.399 32.491-34.748 31.07-34.291 30.338-33.538 28.33-31.473 26.365-29.366 24.383-27.277 21.243-23.968 3.775-8.808 .585-6.603 .585-8.249 1.427-23.434 1.517-29.763 1.408-32.653 1.052-33.73-1.236-33.984-2.289-34.102-3.505-32.57-3.576-31.06-3.85-25.322-4.678 1.346-4.992 9.256-5.1 11.979-5.324 14.716-5.145 17.424-4.986 19.805-4.316 21.539-1.76 22.728 2.014 24.13 4.774 25.133 8.379 25.565 15.433 26.411 18.876 23.134 19.169 16.084 19.397 10.593 16.8 8.778 12.456 5.026 9.297 2.263 4.756-.896 2.45-2.868" fill="#231f20"/>
<path transform="matrix(1,0,0,-1,306.252,402.56373)" d="M0 0C1.853-.064 2.261 .2 2.123 2.388 1.985 4.598-.024 20.639-.748 27.046-1.291 33.731-1.837 39.557-2.4 46.07-2.54 47.686-2.897 48.187-4.49 48.35-11.681 49.085-18.058 48.187-25.245 48.806-26.157 48.884-26.602 48.396-26.645 47.546-26.742 45.61-26.315 31.228-26.32 25.303-26.327 17.46-25.53 8.717-25.235 1.357-25.17-.244-25.042-.316-23.208-.353-18.022-.199-3.28 .114 0 0M-27.805-4.29C-29.756-4.429-30.455-3.89-30.556-1.866-31.029 7.577-31.363 17.021-31.476 26.475-31.562 33.606-32.173 40.725-31.973 47.864-31.944 48.907-31.849 49.902-31.546 50.924-31.176 52.175-30.487 52.525-29.264 52.48-20.075 52.14-10.885 51.807-1.692 51.566-.048 51.523 1.181 50.847 1.204 49.327 1.985 38.177 2.804 28.115 4.203 16.889 5.145 10.565 5.593 4.348 6.641-1.865 6.948-3.688 6.354-3.76 5.086-3.762 .277-3.769-21.298-3.826-27.805-4.29" fill="#231f20"/>
<path transform="matrix(1,0,0,-1,278.6904,489.15553)" d="M0 0C2.457 2.34 15.624 15.257 17.234 24.82 18.167 28.829 16.092 33.275 12.401 34.376 9.891 35.264 7.263 35.235 4.184 32.171 3.565 31.555-.586 27.937-.756 28.946-1.375 32.612-2.761 37.195-3.246 39.127-3.798 40.997-5.354 43.752-7.982 44.356-10.112 44.846-12.052 43.663-12.989 42.076-13.626 40.997-16.994 37.279-12.563 24.422-8.845 15.886-4.725 7.984 0 0M1.817 35.115C6.446 38.373 10.826 40.079 16.162 37.811 19.237 36.503 20.951 33.357 21.356 31.169 22.526 24.851 20.314 18.279 16.073 12.592 11.778 6.831 6.832 1.677 2.125-3.701 .202-5.896-1.226-5.717-2.365-3.14-5.005 2.834-9.07 8.287-11.924 14.152-15.069 20.616-17.694 27.383-18.32 34.395-18.651 38.104-18.076 42.319-14.572 45.62-10.457 49.499-5.606 48.515-2.673 45.313-.167 42.578 1.583 37.955 1.817 35.115" fill="#231f20"/>
<path transform="matrix(1,0,0,-1,250.4194,354.1946)" d="M0 0C-2.375-.555-20.447-4.971-27.534-6.812-28.969-7.185-31.022-7.773-31.389-5.056-31.534-3.98-31.442-3.67-30.225-3.329-21.735-.955-13.286 1.202-4.592 3.203-.442 4.158 2.729 5.545 5.096 4.613 6.669 3.994 6.703 3.194 6.041 1.869 3.324-3.574 .656-7.912-1.806-12.914-7.443-24.365-14.546-36.036-20.641-47.394-21.803-49.806-21.204-49.26-18.504-49.178-8.74-48.884 1.022-48.54 10.788-48.298 12.212-48.262 13.268-48.404 14.374-49.989 14.849-50.67 15.437-51.242 15.015-52.12 14.633-52.915 13.85-52.873 13.128-52.846 8.57-52.68 4.012-52.696-.549-52.686-9.283-52.666-18.014-52.72-26.743-53.004-28.933-53.076-29.517-52.282-28.41-50.281-22.88-40.275-16.073-29.815-10.718-19.721-7.509-13.672-.346-.921 0 0" fill="#231f20"/>
<path transform="matrix(1,0,0,-1,252.3228,457.4299)" d="M0 0C0-7.929-.049-15.858 .034-23.787 .055-25.837 .329-31.775-.192-32.22-.935-32.854-2.429-32.878-3.122-32.005-3.763-31.197-3.655-30.114-3.667-28.845-3.716-23.802-3.937-18.761-3.975-13.719-3.987-12.067-4.199-11.247-6.196-10.895-12.391-9.804-18.614-8.976-24.851-8.2-26.025-8.055-26.653-8.308-26.638-9.668-27.038-15.532-27.681-20.382-28.442-25.595-28.5-28.337-29.512-29.654-31.933-28.792-33.411-28.266-33.486-27.153-33.367-25.889-32.952-21.512-32.318-17.155-31.773-12.805-30.629-3.67-29.612 4.475-28.559 12.781-28.052 15.722-28.033 16.291-27.27 19.054-26.902 20.381-25.621 19.878-24.79 19.732-23.691 19.54-22.974 18.608-23.117 17.529-23.916 11.494-24.725 5.041-25.4-1.22-25.542-2.526-25.71-3.475-24.433-3.559-18.029-4.593-12.063-5.471-6.034-6.115-4.354-6.682-3.961-5.457-3.981-3.827-4.062 2.666-4.01 9.16-4.087 15.652-4.103 16.92-3.732 17.838-2.684 18.475-1.286 19.324-.217 18.403-.203 16.34-.163 10.484 .101 5.571 0 0" fill="#231f20"/>
<path transform="matrix(1,0,0,-1,330.7402,406.196)" d="M0 0C-1.794 .157-2.961 1.04-3.234 2.537-4.156 7.58-4.428 12.702-5.101 17.773-6.157 25.744-7.308 33.702-8.371 41.671-8.898 45.623-9.403 49.581-9.75 53.55-9.883 55.071-8.318 55.919-6.668 56.177-1.801 56.938 12.535 61.061 14.999 61.651 16.43 61.994 17.509 60.677 17.71 59.491 17.871 58.531 16.634 58.297 15.78 58.049 9.293 56.162 3.524 54.807-2.964 52.924-3.668 52.72-4.429 52.134-4.368 51.286-3.813 43.484-2.951 35.548-1.742 27.791-1.428 25.772-.508 25.901 .779 26.123 4.621 26.787 13.591 28.835 14.702 28.822 15.408 28.813 16.555 29.145 16.657 27.985 16.734 27.107 16.487 26.104 15.481 25.562 14.613 25.093 13.714 24.958 12.749 24.817 8.419 24.183 4.842 23.596 .586 22.515-.1 22.34-1.016 22.305-.73 20.994 .078 15.718 .434 11.648 1.535 6.987 2.047 4.821 3.091 4.298 5.192 4.294 12.547 4.278 19.097 4.288 26.45 4.127 27.497 4.104 28.56 3.955 29.357 3.237 29.97 2.687 29.756 1.913 29.484 1.221 29.136 .334 28.474 .187 27.564 .207 24.523 .275 7.332 .04 0 0" fill="#231f20"/>
<path transform="matrix(1,0,0,-1,352.5166,440.74443)" d="M0 0C7.541-.146 14.646-.343 22.069-.296 23.311-.25 25.171-.22 25.302-2.101 25.412-3.681 25.145-4.172 24.335-4.542 23.732-4.965 15.831-4.757 11.431-4.641 9.802-4.757 7.578-4.62 7.578-6.808 7.145-14.213 7.418-21.554 7.251-28.988 7.059-37.595 7.135-46.192 7.43-54.792 7.457-55.588 7.722-59.436 7.083-60.063 6.043-61.088 4.529-61.167 3.161-60.349 2.808-60.138 2.34-58.868 2.362-58.265 2.573-49.489 2.808-12.868 2.808-6.786 2.808-4.985 2.589-4.649 1.021-4.581-3.332-4.542-5.809-4.434-10.43-4.581-12.053-4.542-12.333-4.147-12.411-2.863-12.479-1.741-12.572-.19-11.052-.117-6.201 .117-3.979 0 0 0" fill="#231f20"/>
</g>
</g>
</svg>
