<?xml version="1.0" encoding="UTF-8"?>
<svg id="Layer_1" data-name="Layer 1" xmlns="http://www.w3.org/2000/svg" version="1.1" viewBox="0 0 190.2 212.6">
  <defs>
    <style>
      .cls-1 {
        fill: #231f20;
        stroke-width: 0px;
      }
    </style>
  </defs>
  <path class="cls-1" d="M178.9,112.2c-.6-8.6-8-102.1-8.4-105.4,0-.7.2-1.9-1.1-1.9-2,0-4,0-6,.2-9.1.7-18,1.9-27.3,2.9-12.1,1.3-24.1,2.8-36.2,3.9-8.3.8-16.6,1.9-25,2.6-6.9.6-13.9,1.2-20.8,1.6-14.7.7-29.2,3.3-43.8,4.3-1.6,0-3.1.5-4.7.6-.8,0-.9.4-.9,1,0,2.9.4,17.7.4,22.3,0,5.4.4,10.7.4,16.1,0,9.9,1.4,36,1.4,39.1,0,5.1.7,31.1,1,38.7.4,8.4,1.8,47.4,2,51.2,0,.9,0,1.8,1.3,1.9,3.4.3,6.8.7,10.3,1,4.4.4,101.6,10,108.5,10.7,6.7.7,13.5,1.5,20.2,2.2,8,.8,15.9,1.5,23.9,2.3,3.7.4,7.5.7,11.2,1.1,1.2.1,1.5-.3,1.4-1.5-.4-4.9-7.2-85.6-7.8-94.8M186.2,212.6c-4.9-.2-9.7-.9-14.5-1.4-6.7-.7-13.5-1.5-20.2-2.2-8.4-.9-131.8-13.2-141.3-14.3-2.4-.3-3.6-1.1-3.7-3.6-.2-6.9-.6-13.8-.8-20.6-.7-20.3-1.3-40.5-2-60.8-.4-12.6-.9-25.3-1.4-37.9C1.5,55,.7,38.3,0,21.7c0-1.3.2-2.6.5-3.8.4-1.7,2.1-1.3,3.1-1.4,11.4-.5,22.8-1.6,34.2-2.8,5.7-.6,11.5-1,17.2-1.5,11.2-1,22.4-1.9,33.7-3C101.3,7.9,166.8,1,171.6,0c1.7-.3,2.4.3,2.4,2.1.4,12.2,1.4,24.4,2.2,36.6.4,5.9,6.1,77,6.9,88.2.6,7.8,1.3,15.6,2,23.4,1,10.4,1.6,20.9,2.6,31.3.7,6.7.9,13.4,1.6,20.1.3,2.8.1,5.7.7,8.5.2,1.1-.7,2.4-4,2.2"/>
  <path class="cls-1" d="M108.3,148.1c4.7-4.1,9.4-7.7,13.7-11.5,2.9-2.2,1.6-9.5-1.2-10.7-.3-.2-.7-.3-1.1-.3-2.5,0-5.3.8-7.7,1.4-3.3.9-4.5,2.4-4.4,5.8.1,4.9.4,9.9.7,15.3M110.7,151c1.5.8,19.6,16.5,25.1,22,1.5,1.5,2.9,3.1,4.7,4.4,1.8,1.7,1.8,2.6.9,4.1-.8,1.3-2.2.9-2.9.1-2-2.1-4-4.2-6-6.3-3.1-3.3-20.6-18.5-23.8-20.7,0,1.6.8,16.8.9,23.2-.1,2.9-.5,4-2.8,4.2-1.1.1-2.3-1.4-2.3-2.9-.3-5.7-1.1-32.4-1.4-40.3-.1-2.7-.3-5.5-.2-8.2.2-2.4.8-4.1,3.4-5.3,3.8-1.4,6.5-2.4,10.1-2.8,7.1-.8,10.5,2.4,10.8,9.5.2,5.5-2.4,7.3-6.7,11.1-3.2,2.8-7.7,5.9-10,7.9"/>
  <path class="cls-1" d="M103.4,87.8c1.9,0,2.3-.2,2.1-2.4-.1-2.2-2.1-18.3-2.9-24.7-.5-6.7-1.1-12.5-1.7-19-.1-1.6-.5-2.1-2.1-2.3-7.2-.7-13.6.2-20.8-.5-.9,0-1.4.4-1.4,1.3,0,1.9.3,16.3.3,22.2,0,7.8.8,16.6,1.1,23.9,0,1.6.2,1.7,2,1.7,5.2-.2,19.9-.5,23.2-.4M75.6,92.1c-2,.1-2.6-.4-2.8-2.4-.5-9.4-.8-18.9-.9-28.3,0-7.1-.7-14.2-.5-21.4,0-1,.1-2,.4-3.1.4-1.3,1.1-1.6,2.3-1.6,9.2.3,18.4.7,27.6.9,1.6,0,2.9.7,2.9,2.2.8,11.2,1.6,21.2,3,32.4.9,6.3,1.4,12.5,2.4,18.8.3,1.8-.3,1.9-1.6,1.9-4.8,0-26.4,0-32.9.5"/>
  <path class="cls-1" d="M75.9,174.4c2.5-2.3,15.6-15.3,17.2-24.8.9-4-1.1-8.5-4.8-9.6-2.5-.9-5.1-.9-8.2,2.2-.6.6-4.8,4.2-4.9,3.2-.6-3.7-2-8.2-2.5-10.2-.6-1.9-2.1-4.6-4.7-5.2-2.1-.5-4.1.7-5,2.3-.6,1.1-4,4.8.4,17.7,3.7,8.5,7.8,16.4,12.6,24.4M77.7,139.3c4.6-3.3,9-5,14.3-2.7,3.1,1.3,4.8,4.5,5.2,6.6,1.2,6.3-1,12.9-5.3,18.6-4.3,5.8-9.2,10.9-13.9,16.3-1.9,2.2-3.4,2-4.5-.6-2.6-6-6.7-11.4-9.6-17.3-3.1-6.5-5.8-13.2-6.4-20.2-.3-3.7.2-7.9,3.7-11.2,4.1-3.9,9-2.9,11.9.3,2.5,2.7,4.3,7.4,4.5,10.2"/>
  <path class="cls-1" d="M47.6,39.5c-2.4.6-20.4,5-27.5,6.8-1.4.4-3.5,1-3.9-1.8-.1-1.1,0-1.4,1.2-1.7,8.5-2.4,16.9-4.5,25.6-6.5,4.2-1,7.3-2.3,9.7-1.4,1.6.6,1.6,1.4.9,2.7-2.7,5.4-5.4,9.8-7.8,14.8-5.6,11.5-12.7,23.1-18.8,34.5-1.2,2.4-.6,1.9,2.1,1.8,9.8-.3,19.5-.6,29.3-.9,1.4,0,2.5.1,3.6,1.7.5.7,1.1,1.3.6,2.1-.4.8-1.2.8-1.9.7-4.6-.2-9.1-.2-13.7-.2-8.7,0-17.5,0-26.2.3-2.2,0-2.8-.7-1.7-2.7,5.5-10,12.3-20.5,17.7-30.6,3.2-6,10.4-18.8,10.7-19.7"/>
  <path class="cls-1" d="M49.5,142.7c0,7.9,0,15.9,0,23.8,0,2,.3,8-.2,8.4-.7.6-2.2.7-2.9-.2-.6-.8-.5-1.9-.5-3.2,0-5-.3-10.1-.3-15.1,0-1.7-.2-2.5-2.2-2.8-6.2-1.1-12.4-1.9-18.7-2.7-1.2-.1-1.8.1-1.8,1.5-.4,5.9-1,10.7-1.8,15.9,0,2.7-1.1,4.1-3.5,3.2-1.5-.5-1.6-1.6-1.4-2.9.4-4.4,1-8.7,1.6-13.1,1.1-9.1,2.2-17.3,3.2-25.6.5-2.9.5-3.5,1.3-6.3.4-1.3,1.6-.8,2.5-.7,1.1.2,1.8,1.1,1.7,2.2-.8,6-1.6,12.5-2.3,18.7-.1,1.3-.3,2.3,1,2.3,6.4,1,12.4,1.9,18.4,2.6,1.7.6,2.1-.7,2.1-2.3,0-6.5,0-13-.1-19.5,0-1.3.4-2.2,1.4-2.8,1.4-.8,2.5,0,2.5,2.1,0,5.9.3,10.8.2,16.3"/>
  <path class="cls-1" d="M127.9,91.5c-1.8-.2-3-1-3.2-2.5-.9-5-1.2-10.2-1.9-15.2-1.1-8-2.2-15.9-3.3-23.9-.5-4-1-7.9-1.4-11.9-.1-1.5,1.4-2.4,3.1-2.6,4.9-.8,19.2-4.9,21.7-5.5,1.4-.3,2.5,1,2.7,2.2.2,1-1.1,1.2-1.9,1.4-6.5,1.9-12.3,3.2-18.7,5.1-.7.2-1.5.8-1.4,1.6.6,7.8,1.4,15.7,2.6,23.5.3,2,1.2,1.9,2.5,1.7,3.8-.7,12.8-2.7,13.9-2.7.7,0,1.9-.3,2,.8,0,.9-.2,1.9-1.2,2.4-.9.5-1.8.6-2.7.7-4.3.6-7.9,1.2-12.2,2.3-.7.2-1.6.2-1.3,1.5.8,5.3,1.2,9.3,2.3,14,.5,2.2,1.6,2.7,3.7,2.7,7.4,0,13.9,0,21.3.2,1,0,2.1.2,2.9.9.6.5.4,1.3.1,2-.3.9-1,1-1.9,1-3,0-20.2.2-27.6.2"/>
  <path class="cls-1" d="M149.7,126c7.5.1,14.6.3,22.1.3,1.2,0,3.1,0,3.2,1.8.1,1.6-.2,2.1-1,2.4-.6.4-8.5.2-12.9,0-1.6.1-3.9,0-3.9,2.2-.4,7.4-.2,14.7-.3,22.2-.2,8.6-.1,17.2.2,25.8,0,.8.3,4.6-.3,5.3-1,1-2.6,1.1-3.9.3-.4-.2-.8-1.5-.8-2.1.2-8.8.4-45.4.4-51.5s-.2-2.1-1.8-2.2c-4.4,0-6.8-.1-11.5,0-1.6,0-1.9-.4-2-1.7,0-1.1-.2-2.7,1.4-2.7,4.9-.2,7.1-.1,11.1-.1"/>
</svg>